<?xml version="1.0" standalone="no"?>
<!DOCTYPE svg PUBLIC "-//W3C//DTD SVG 20010904//EN"
 "http://www.w3.org/TR/2001/REC-SVG-20010904/DTD/svg10.dtd">
<svg version="1.0" xmlns="http://www.w3.org/2000/svg"
 width="211.000000pt" height="211.000000pt" viewBox="0 0 211.000000 211.000000"
 preserveAspectRatio="xMidYMid meet">
<metadata>
Created by potrace 1.14, written by Peter Selinger 2001-2017
</metadata>
<g transform="translate(0.000000,211.000000) scale(0.100000,-0.100000)"
fill="#000000" stroke="none">
<path d="M1066 1973 c-3 -4 -16 -8 -28 -10 -12 -2 -25 -8 -28 -13 -4 -6 -17
-12 -30 -15 -12 -2 -25 -7 -28 -9 -2 -3 -13 -1 -23 5 -11 6 -19 6 -19 0 0 -10
-32 -10 -40 1 -8 11 -81 -14 -87 -28 -3 -7 -12 -10 -20 -7 -10 4 -14 2 -10 -4
8 -13 -49 -42 -87 -45 -14 -1 -26 -7 -26 -12 0 -5 -3 -7 -6 -3 -7 7 -54 -46
-54 -62 0 -6 -4 -11 -10 -11 -5 0 -10 -7 -10 -17 0 -9 -2 -14 -5 -11 -8 7 -59
-43 -70 -67 -7 -18 -14 -53 -17 -93 -1 -6 -4 -10 -6 -7 -8 8 -54 -64 -47 -74
3 -5 -1 -11 -7 -14 -10 -3 -10 -8 1 -18 12 -12 13 -12 6 0 -6 10 -4 12 4 6 9
-5 9 -11 3 -17 -11 -11 -5 -41 7 -34 3 2 5 -12 3 -32 -2 -21 -3 -64 -3 -97 1
-33 1 -70 1 -82 0 -12 5 -25 10 -28 6 -4 8 -10 5 -15 -3 -5 -1 -19 6 -31 8
-15 8 -19 0 -15 -6 4 -14 0 -17 -8 -3 -9 -9 -14 -13 -11 -4 2 -15 -18 -25 -46
-13 -36 -17 -64 -12 -102 9 -73 11 -85 19 -93 4 -4 7 -16 7 -26 0 -26 48 -118
65 -124 7 -3 20 -7 29 -8 19 -3 34 -16 18 -16 -9 0 -9 -5 0 -20 7 -11 15 -15
19 -9 3 5 6 -5 6 -23 1 -50 11 -81 31 -99 11 -8 23 -26 27 -40 4 -13 10 -26
14 -29 3 -3 11 -14 18 -25 6 -11 17 -19 23 -17 7 2 10 -3 7 -12 -4 -9 1 -17
14 -21 10 -4 17 -11 14 -16 -4 -5 -1 -9 5 -9 6 0 8 -4 5 -10 -3 -5 1 -10 10
-10 9 0 13 -5 10 -10 -3 -6 1 -10 10 -10 9 0 13 -5 10 -10 -6 -10 9 -15 30
-10 5 1 7 -1 3 -5 -10 -10 17 -35 36 -35 9 0 16 -7 16 -16 0 -8 5 -12 10 -9 6
3 10 1 10 -4 0 -6 9 -11 20 -11 11 0 20 -5 20 -11 0 -5 4 -8 9 -4 5 3 12 1 16
-5 4 -6 10 -8 15 -5 5 3 22 -2 37 -12 21 -14 25 -14 18 -3 -7 12 -6 13 7 3 8
-7 18 -10 21 -6 4 3 7 1 7 -7 0 -10 3 -10 15 0 12 10 15 10 15 0 0 -10 4 -10
16 1 13 10 17 10 25 -2 8 -12 10 -12 20 1 8 11 12 12 16 2 2 -6 9 -9 15 -6 6
4 25 9 41 11 17 1 34 9 39 16 6 9 8 8 8 -2 0 -12 3 -12 12 -3 7 7 20 12 30 12
9 0 22 8 27 18 6 9 11 13 11 8 0 -4 8 0 18 11 9 10 13 12 7 4 -8 -12 -7 -12
12 -3 12 7 25 17 28 22 4 6 11 7 17 4 7 -4 8 -2 4 4 -4 7 -1 12 8 12 9 0 16 7
16 16 0 8 5 12 10 9 6 -3 10 -1 10 5 0 6 5 8 10 5 10 -6 15 9 10 30 -1 6 2 7
6 3 4 -4 17 4 30 17 13 14 28 25 33 25 5 0 8 9 6 19 -3 15 1 18 13 14 9 -3 14
-3 10 1 -3 4 3 17 14 28 11 11 17 26 14 34 -3 8 -2 13 3 10 12 -8 35 40 26 55
-6 9 -3 10 11 5 10 -4 15 -4 11 0 -4 4 -1 14 6 22 10 13 9 14 -2 7 -10 -5 -12
-4 -7 3 4 7 14 12 22 12 8 0 14 4 14 9 0 5 12 12 26 15 15 4 24 10 21 13 -3 3
-1 11 6 19 29 33 37 44 31 44 -3 0 0 10 8 22 26 41 58 144 61 193 1 15 -34 85
-43 85 -9 0 -11 60 -2 74 3 6 7 17 8 26 3 25 13 72 28 127 8 28 11 54 8 57 -3
3 0 6 5 6 6 0 10 8 8 18 -1 9 1 24 6 33 5 9 5 20 1 24 -4 3 -8 51 -9 105 -1
96 -2 100 -34 134 -18 20 -38 36 -46 36 -7 0 -17 8 -20 18 -4 9 -15 25 -25 34
-11 9 -20 20 -21 25 -1 4 -5 7 -8 6 -3 -1 -12 8 -19 21 -8 17 -18 22 -33 18
-14 -3 -18 -1 -13 6 5 8 -1 12 -14 12 -12 0 -18 5 -15 10 6 9 -8 15 -29 11 -5
-1 -6 7 -3 19 3 13 0 20 -9 20 -8 0 -14 4 -14 8 0 5 -11 15 -25 22 -13 7 -21
18 -18 23 4 6 0 8 -10 4 -9 -3 -19 -2 -23 4 -3 6 -12 8 -20 5 -8 -3 -14 0 -14
7 0 8 -4 6 -10 -3 -9 -13 -10 -13 -10 0 0 13 -1 13 -10 0 -7 -12 -10 -12 -10
-1 0 7 -6 11 -15 7 -8 -3 -15 -1 -15 5 0 6 -4 7 -10 4 -5 -3 -10 -2 -10 2 0 5
-23 9 -51 8 -27 -1 -52 2 -55 7 -3 4 -11 5 -19 2 -17 -7 -75 17 -75 31 0 5 -5
3 -10 -5 -9 -13 -10 -13 -10 0 0 13 -1 13 -10 0 -6 -10 -10 -11 -10 -2 0 13
-13 16 -24 5z m-486 -1423 c6 -11 8 -20 6 -20 -3 0 -10 9 -16 20 -6 11 -8 20
-6 20 3 0 10 -9 16 -20z"/>
</g>
</svg>
